<?xml version="1.0"?>
<svg xmlns="http://www.w3.org/2000/svg" id="Layer_1" data-name="Layer 1" viewBox="0 0 512 512" width="512" height="512"><title>recovered heart patient </title><path d="M401.57,299.93c19.63,0,29.33,18.69,29.33,34.89,0,41.49-58.67,79.72-58.67,79.72s-58.68-37.97-58.68-79.72c0-16.19,7.91-34.91,29.34-34.91a29.347,29.347,0,0,1,29.34,29.35A29.324,29.324,0,0,1,401.57,299.93Z" style="fill:#f8ec7d"/><path d="M367.38,468A110.941,110.941,0,0,1,264.49,330.96a109.473,109.473,0,0,1,5.59-16.94A110.894,110.894,0,1,1,372.23,468.11C370.6,468.11,368.99,468.08,367.38,468ZM430.9,334.82c0-16.2-9.7-34.89-29.33-34.89a29.324,29.324,0,0,0-29.34,29.33,29.347,29.347,0,0,0-29.34-29.35c-21.43,0-29.34,18.72-29.34,34.91,0,41.75,58.68,79.72,58.68,79.72S430.9,376.31,430.9,334.82Z" style="fill:#6fe3ff"/><path d="M367.38,468H48.09c-10.13,0-25.2-13.19-25.2-23.32v-43.2c0-61.06,75.35-74.65,123.75-88.89l.01.03c0,17.07,20.26,52.5,60.76,52.5,28.42,0,48.59-18.1,57.07-34.16h.01A110.941,110.941,0,0,0,367.38,468Z" style="fill:#f8ec7d"/><path d="M293.02,119.79c0,2.13-.41,9.42-1.1,17.96,0-29.48-33.88-48.09-33.88-48.09s-8.09,30.83-66.97,57.46c-61.01,27.59-74.01-15.62-74.63-17.82a.659.659,0,0,0-.02-.09c-.53-2.62-.91-4.64-1.07-5.74-2.59-17.68,10.41-79.02,90.49-79.02C280.79,44.45,293.02,100.17,293.02,119.79Z" style="fill:#af593c"/><path d="M270.08,314.02a109.473,109.473,0,0,0-5.59,16.94h-.01c-8.48,16.06-28.65,34.16-57.07,34.16-40.5,0-60.76-35.43-60.76-52.5l-.01-.03q4.575-1.35,8.79-2.71l12.18-26.25,1.58-1.65c9.48,5.99,21.91,9.96,38.22,9.96,16.28,0,28.69-3.86,38.17-9.69l.07.12,12.39,27.87C261.88,311.54,265.91,312.78,270.08,314.02Z" style="fill:#d68565"/><path d="M286.78,172.64c10.84-12.34,25.35-1.38,21.33,15.67-5.04,21.35-18.77,38.27-32.05,38.02-.05,0-.87,37.6-30.41,55.88-.02.01-.05.03-.07.04-9.48,5.83-21.89,9.69-38.17,9.69-16.31,0-28.74-3.97-38.22-9.96-29.06-18.35-30.38-55.65-30.44-55.65-13.27.25-27.01-16.67-32.05-38.02-4.03-17.05,10.49-27.09,21.33-15.68-2.73-3.59-8.98-30.51-11.59-43.33.62,2.2,13.62,45.41,74.63,17.82,58.88-26.63,66.97-57.46,66.97-57.46s33.88,18.61,33.88,48.09C290.78,152.08,288.85,169.92,286.78,172.64Z" style="fill:#e48e66"/></svg>
